<svg xmlns="http://www.w3.org/2000/svg" viewBox="0 0 81 95"><g fill="#fefefe"><path d="M77.6 53.8a4.41 4.41 0 0 1-1.6-3.7c0-6.3-1.3-14.5 1.4-20.7-.7-.8-1.2-1.8-1.3-2.9-1.5-1.7-1.8-4-.7-6 1.3-2.7 1.2-6.7.9-9.5-.1-1.2.4-2.4 1.2-3.3l.3-1.9C73.5 7.5 70.9 2 70.9 2H10.1S8 6.4 4.4 6.2c.2.4.2.8.2 1.3 0 1.5-.2 3.1-.2 4.7.1 1.2.2 2.5.4 3.7.8 2.5 1.4 5.1 1.6 7.8.1 1.2-.3 2.3-1 3.2-.2.9-.8 1.7-1.5 2.3.3.7.5 1.4.5 2.1.2 6.9.8 13.5.2 20.5-.1 1.1-.5 2.2-1.2 3 .1 2 0 4 0 6.1.7 1.1.8 2.5.4 3.7C1.6 73 6.4 78 12.4 82.2c.2.1.3.1.5.2.9.5 1.8 1 2.7 1.6.1 0 .1.1.2.1.5.3 1.1.6 1.7.8.1 0 .1.1.2.1h1.9c-.6-.5-1-1.2-1.2-1.9-1-1.9-1.3-4-.9-6.1 0-.4.1-.8.2-1.2.2-.4.3-.8.5-1.2.6-1.7 1.6-3.2 3-4.3a1.38 1.38 0 0 0 .3-.4c.6-.7 1.2-1.3 1.9-1.8 1.8-1.4 3.8-2.5 6-3.2 1.6-.7 3.2-.5 4.9-.8C40 63.9 48.5 62.8 54 66c.7.3 1.3.6 1.9 1 .2.1.5.3.7.4h.1c1.5.9 2.9 2 4 3.3.3.3.6.6.8 1 .5.6.9 1.2 1.3 1.9.6 1 .8 2.2.6 3.4.2.6.3 1.2.3 1.8.1.8 0 1.6-.3 2.3-.1 1.1-.5 2.2-1.3 3.1-.2.3-.4.5-.7.7H64c.6-.7 1.3-1.2 2.2-1.5 1.3-.9 2.7-1.7 4.1-2.6 1.7-1.3 5.1-3.6 5.9-5.6.1-.5.4-.9.6-1.3.2-.6.3-1.1.4-1.7a4.53 4.53 0 0 1 .3-1.6c-.1-1.5-.2-3-.4-4.5-.2-1.3-.1-2.6.5-3.7-.1-2.8-.1-5.8 0-8.6z"/><path d="M40.5,64.4c14.2,0,23.3,7.5,23.3,14.4S50.7,93.1,40.5,93.1s-22.9-7.4-22.9-14.3s7.9-14.9,23-14.4"/></g><path fill="#c53131" d="M4.5 13.6c-.7-2.4-1.2-4.9-1.4-7.4v-.4l.6-.2C5.2 5.2 9.4 3.3 9.4 1V0h62.2v1c0 2.4 4.2 4.2 5.7 4.7l.6.2v.4c-.2 2.5-.7 5-1.4 7.4L76 7.3C74.4 6.7 70.5 5 69.7 2H11.3C10.5 5 6.6 6.7 5 7.3l-.5 6.3zm12.8 70.2c-.5-1.3-1.3-3.5-1.3-5 0-8.6 7.3-15.6 24.5-15.6 18.2 0 24.9 7.6 24.9 16.2 0 1.4-.7 2.8-1.8 4.4h1.9l-2.5 2h-1.2c-.9 1.3-3 2.4-4.2 3.3 1.2-.1 1.4-.2 2.8-.2l3.8-3.1h0l.2-.1c.7-.6 1.5-1.1 2.3-1.7l.3-.2h0c1.1-.8 2.3-1.5 3.5-2.1 2.2-1.6 4.1-3.5 5.7-5.7h0l.1-.1.4-.6.2-.2c1.1-1.6 1.9-3.5 2.1-5.5.1-1.7-.3-3.3-1.2-4.7 0 2.2.1 4.4.2 6.4-.5 1.2-1.1 2.4-1.8 3.5-.3-3.8-1.9-36.8-.2-46.1-1.3-1.7-1.8-3.8-1.3-5.9.9-2.2 1.6-4.4 2.1-6.7 0 0 1.4-4.5 1.4-6.5l1.2 13.8-.1.2c-.4 1.3-.8 2.7-1.1 4.1-.7-.5-1.2-1.2-1.6-2 .2-.9.4-1.7.7-2.5l-.2-2.9c-.5 1.6-1.1 2.9-1.1 3-.2 1.1-.1 2.3.4 3.4.3.9.9 1.6 1.6 2.2.7.7 1.4 1.3 2.2 1.9l.5.3-.2.5c-1.3 4.1-2.6 29.9-2.6 29.9v1.2c1.8 1.9 2.8 4.6 2.6 7.2-.3 2.1-1 4.1-2.2 5.9.1 1.4.2 2.6.2 3.8h.3c1.5-.1 2.8.7 2.2 1.8-.4.6-1 1-1.7 1.2.3-.2.6-.5.8-.8s0-.4-.1-.5h-.4 0-.8l.3 3.8.1.9H66.6c-1.5 1-2.8 2.2-4 3.2a12.5 12.5 0 0 1 7 2.1l-2.8 1.1h0c-1.7.7-3.5 1.3-5.3 1.7h0-.3L61 94c-9.7 1.7-10.7.8-10.7.8 2.5 0 4.9-1 6.8-2.8l.2-.2c.1-.1.6-.6 1.5-1.4-.6 0-1.2.1-1.8.1h0-.4c-.4 0-.8.1-1.2.2l-.9.3h-.1c-.3.1-.7.3-1 .4l-.1.1c-.3.2-.5.3-.8.5l-.2.2c-.3.3-.5.5-.8.9l-7.9.9h.1c-2.1.3-4.3.3-6.5 0h.1l-7.9-.9c-.2-.3-.5-.6-.8-.9l-.2-.2c-.3-.2-.5-.4-.8-.6l-.1-.1c-.3-.2-.6-.3-1-.4h-.1l-.9-.3c-.5-.1-.9-.2-1.1-.2H24h0c-.6 0-1.2-.1-1.8-.1.8.8 1.4 1.3 1.5 1.4l.2.2c1.8 1.7 4.3 2.7 6.8 2.7 0 0-1 .9-10.7-.8h-.2-.3 0c-1.8-.4-3.6-1-5.3-1.7h0L11.4 91c2.1-1.4 4.5-2.2 7-2.1-1.2-1-2.6-2.1-4-3.2H2l.1-1.1c0-.1.2-1.5.3-3.8h-.8 0-.4c-.2.1-.3.2-.1.5s.4.6.7.8c-.7-.1-1.3-.6-1.7-1.2-.6-1 .7-1.9 2.2-1.8h.3c.1-1.1.2-2.4.2-3.8-1.2-1.7-2-3.8-2.2-5.9-.2-2.7.7-5.3 2.6-7.2V61S1.8 35.2.5 31.1L.4 31l.5-.3c.8-.5 1.5-1.2 2.2-1.9.7-.6 1.2-1.4 1.5-2.2.5-1 .6-2.2.4-3.3 0-.1-.6-1.4-1.1-3l-.3 2.9c.3.8.5 1.6.7 2.5-.3.8-.9 1.5-1.6 2-.3-1.4-.6-2.7-1-4l-.1-.2L2.9 9.6c0 2 1.4 6.5 1.4 6.5.5 2.3 1.2 4.5 2.1 6.7.4 2.1-.1 4.2-1.4 5.9 1.7 9.3.1 42.3-.1 46.2A14.79 14.79 0 0 1 3 71.4c.1-2 .1-4.2.2-6.4-.9 1.4-1.3 3.1-1.1 4.7.2 1.9 1 3.8 2.1 5.4l.2.2.3.7h.1 0c1.6 2.1 3.6 4 5.7 5.7 1.2.6 2.4 1.4 3.5 2.1h0l.3.2c.8.5 1.6 1.1 2.3 1.7l.2.1h0c1.4 1.1 2.7 2.2 3.8 3.1 1.4 0 1.2 0 2.4.1-1.2-1-2.8-1.9-3.7-3.2H18l-2.5-2m1.4-6.5h0m59.9-28.2c.5-5.7 1.2-14.2 2.2-17.5-.4-.3-.9-.6-1.3-1a144.13 144.13 0 0 0-.9 18.5h0zM74.6 80c.6-.2 1.2-.3 1.8-.3 0-.5-.1-1-.1-1.5-.5.6-1.1 1.2-1.7 1.8zm-5 3.8h7.2c-.1-.7-.2-1.6-.2-2.8-2.5.5-4.9 1.4-7 2.8zm-10.9 8.7h0c1.1.6 4.6-.4 7.4-1.6-1.7-.5-3.4-.7-5.1-.6-1.1 1-1.9 1.7-2.3 2.2h0zm-18.2-.4c7 0 12.8-2.4 17.7-6.1 3.1-2.3 4.6-5.5 4.6-7.3 0-9.4-11.5-13.4-22.2-13.4s-21.9 4.2-21.9 13.4c-.1 1.6.8 4.7 3.6 6.9 2.5 2.6 11.2 6.5 18.2 6.5zM20 90.3c-1.7-.1-3.4.1-5.1.6 2.8 1.1 6.2 2.2 7.3 1.6h.1c-.4-.4-1.2-1.2-2.3-2.2h0zM4.6 79.7l1.8.3c-.6-.6-1.1-1.2-1.7-1.8 0 .5-.1 1-.1 1.5zm-.4 4.1h7.2c-2.1-1.4-4.5-2.3-6.9-2.8-.1 1.2-.2 2.2-.3 2.8zm0-34.7a143.26 143.26 0 0 0-.9-18.5 6.42 6.42 0 0 1-1.3 1c1 3.3 1.7 11.8 2.2 17.5z"/></svg>